# Blender 4.5.4 LTS
# www.blender.org
mtllib bush02.mtl
o ruler_flower4
v 0.377188 0.000000 0.540269
v 0.795701 0.081761 -0.639179
v 0.421699 1.430751 1.124439
v 0.972369 1.562809 -0.427451
v -1.072721 1.241861 0.594162
v -0.522051 1.562810 -0.957728
v -0.669955 0.131993 0.168703
v -0.289276 0.182796 -0.904122
v -0.420586 1.631944 1.127237
v -0.688500 0.987971 -1.318464
v -0.662865 0.181256 -0.432734
v -1.331493 0.635636 0.493610
v 0.338748 0.071717 -1.012706
v -0.213003 0.000000 0.542230
v 0.750777 0.000000 0.068880
v 1.366800 1.022472 -0.709213
v 0.962250 1.764003 0.430883
v 0.588147 0.855913 1.485174
v 0.320233 1.764003 -0.960527
v -1.006861 1.633921 -0.421264
v 1.298494 0.724821 0.550196
v -0.154274 1.890621 0.376722
v -1.336567 0.708012 -0.559003
v 0.043956 0.000000 -0.181926
v 0.480305 0.987971 -1.411641
v -0.444999 0.393372 1.196038
v 0.956767 0.635268 0.854179
v 0.616943 0.000000 0.237750
v -0.048096 0.000000 0.077494
v -0.665405 0.163608 -0.217277
v -1.334749 0.682084 -0.181917
v -1.098031 1.188722 0.132943
v -0.249677 1.797953 0.645585
v 0.701569 1.456619 0.868257
v 0.967075 1.668080 0.021658
v 0.071955 1.830254 -0.260834
v -0.753700 1.473619 -0.739087
v -1.027590 0.841488 -0.921089
v -0.484750 0.181990 -0.657476
v 0.184503 0.034193 -0.578015
v 0.772195 0.038981 -0.268699
v 1.331060 0.622589 -0.050249
v 1.132300 1.227540 0.502426
v 1.169731 1.128361 -0.057042
v 1.210808 1.283868 -0.671036
v 0.449985 1.363387 -1.326192
v -0.575359 1.266057 -1.235879
v -0.877136 1.147290 -0.883646
v -1.174767 1.155934 -0.498852
v -1.234916 0.927177 0.011779
v -1.241128 0.928906 0.640383
v -0.480305 0.992548 1.295539
v 0.467113 1.133999 1.424834
v 0.812878 1.032608 0.918576
v 1.386196 0.353709 0.436871
v 1.100151 0.309178 0.659379
v 0.749808 0.418896 1.115505
v -0.332799 0.188893 0.879839
v -1.273170 0.378026 0.243325
v -1.329420 0.417569 -0.313604
v -1.360820 0.439643 -0.624487
v -1.072176 0.506396 -0.906426
v -0.755401 0.579656 -1.215844
v 0.414345 0.521871 -1.225753
v 1.354716 0.544252 -0.589240
v 1.371188 0.323152 -0.052345
vn 0.3446 -0.8999 0.2673
vn 0.4611 -0.8873 -0.0055
vn 0.9446 0.3273 -0.0247
vn 0.7043 0.2886 0.6486
vn 0.1180 0.8373 0.5338
vn 0.1594 0.9809 -0.1113
vn -0.1305 0.9497 -0.2848
vn -0.6169 0.7156 0.3278
vn -0.9291 0.3576 0.0943
vn -0.6660 0.4128 -0.6213
vn -0.2748 -0.8869 -0.3713
vn -0.3420 -0.9383 -0.0521
vn -0.2184 -0.9726 -0.0796
vn -0.2202 -0.9722 -0.0800
vn -0.2191 -0.9724 -0.0798
vn -0.1946 -0.9687 -0.1544
vn -0.1964 -0.9682 -0.1553
vn -0.1947 -0.9686 -0.1544
vn 0.0426 -0.9950 -0.0898
vn -0.0000 -1.0000 -0.0000
vn 0.5192 -0.4866 -0.7026
vn -0.1067 -0.5587 -0.8224
vn -0.1426 0.6629 -0.7350
vn 0.5324 0.7065 -0.4662
vn -0.3877 -0.8859 0.2547
vn 0.0387 -0.8367 0.5463
vn -0.0482 0.4478 0.8929
vn -0.6682 0.3122 0.6753
vn 0.3131 -0.8747 0.3700
vn -0.2181 -0.9727 -0.0796
vn -0.3658 -0.9293 -0.0501
vn -0.8826 0.4701 -0.0082
vn -0.5603 0.8282 0.0126
vn 0.2266 0.9000 0.3725
vn 0.7203 0.4238 0.5491
vn 0.2695 0.9594 -0.0838
vn -0.2828 0.9511 -0.1240
vn -0.7097 0.5222 -0.4729
vn -0.3441 -0.8356 -0.4283
vn -0.1967 -0.9681 -0.1554
vn 0.0690 -0.9941 -0.0839
vn 0.5641 -0.7940 -0.2265
vn 0.8885 0.4550 0.0603
vn 0.9510 0.3091 0.0037
vn 0.9057 0.3658 0.2143
vn 0.6079 0.3190 -0.7271
vn -0.0919 0.2589 -0.9615
vn -0.7534 0.4405 -0.4882
vn -0.7480 0.3803 -0.5439
vn -0.9392 0.3413 0.0362
vn -0.9446 0.3280 0.0091
vn -0.6377 -0.1681 0.7517
vn -0.1837 -0.0765 0.9800
vn 0.8393 0.3266 0.4347
vn 0.6740 0.2192 0.7054
vn 0.6526 -0.1147 0.7490
vn 0.8170 -0.0943 0.5689
vn 0.0621 -0.7164 0.6949
vn -0.5038 -0.7374 0.4499
vn -0.9883 -0.1478 0.0374
vn -0.9986 0.0172 0.0494
vn -0.7471 0.1400 -0.6498
vn -0.7334 0.0028 -0.6797
vn -0.0495 -0.3062 -0.9507
vn 0.5707 -0.2953 -0.7662
vn 0.9984 0.0417 0.0378
vn 0.9821 0.1884 -0.0071
vt 0.455220 0.000000
vt 0.500000 0.000000
vt 0.500000 0.061090
vt 0.455220 0.061090
vt 0.559596 0.000000
vt 0.559596 0.061090
vt 0.500000 0.185471
vt 0.559596 0.185471
vt 0.559596 0.250000
vt 0.500000 0.250000
vt 0.455220 0.250000
vt 0.455220 0.185471
vt 0.500000 0.375000
vt 0.455220 0.375000
vt 0.559596 0.375000
vt 0.559596 0.500000
vt 0.500000 0.500000
vt 0.455220 0.500000
vt 0.500000 0.564529
vt 0.455220 0.564529
vt 0.559596 0.564529
vt 0.500000 0.688910
vt 0.559596 0.688910
vt 0.559596 0.750000
vt 0.500000 0.750000
vt 0.455220 0.688910
vt 0.455220 0.750000
vt 0.500000 0.875000
vt 0.455220 0.875000
vt 0.559596 0.875000
vt 0.559596 1.000000
vt 0.500000 1.000000
vt 0.455220 1.000000
vt 0.625000 0.000000
vt 0.750000 0.000000
vt 0.750000 0.061090
vt 0.625000 0.061090
vt 0.875000 0.000000
vt 0.875000 0.061090
vt 0.750000 0.185471
vt 0.875000 0.185471
vt 0.875000 0.250000
vt 0.750000 0.250000
vt 0.625000 0.185471
vt 0.625000 0.250000
vt 0.125000 0.000000
vt 0.250000 0.000000
vt 0.250000 0.061090
vt 0.125000 0.061090
vt 0.375000 0.000000
vt 0.375000 0.061090
vt 0.250000 0.185471
vt 0.375000 0.185471
vt 0.375000 0.250000
vt 0.250000 0.250000
vt 0.125000 0.185471
vt 0.125000 0.250000
vt 0.375000 0.875000
vt 0.375000 1.000000
vt 0.375000 0.750000
vt 0.375000 0.688910
vt 0.375000 0.500000
vt 0.375000 0.564529
vt 0.375000 0.375000
vt 0.625000 0.375000
vt 0.625000 0.500000
vt 0.625000 0.564529
vt 0.625000 0.688910
vt 0.625000 0.750000
vt 0.625000 0.875000
vt 0.625000 1.000000
vt 0.500000 0.125000
vt 0.559596 0.125000
vt 0.625000 0.125000
vt 0.750000 0.125000
vt 0.875000 0.125000
vt 0.559596 0.625000
vt 0.625000 0.625000
vt 0.500000 0.625000
vt 0.455220 0.625000
vt 0.375000 0.625000
vt 0.125000 0.125000
vt 0.250000 0.125000
vt 0.375000 0.125000
vt 0.455220 0.125000
s 1
usemtl lambert3
f 28/1/1 15/2/1 55/3/1 56/4/1
f 15/2/2 41/5/2 66/6/2 55/3/2
f 43/7/3 44/8/3 35/9/3 17/10/3
f 34/11/4 54/12/4 43/7/4 17/10/4
f 34/11/5 17/10/5 22/13/5 33/14/5
f 17/10/6 35/9/6 36/15/6 22/13/6
f 22/13/7 36/15/7 37/16/7 20/17/7
f 33/14/8 22/13/8 20/17/8 32/18/8
f 32/18/9 20/17/9 49/19/9 50/20/9
f 20/17/10 37/16/10 48/21/10 49/19/10
f 61/22/11 62/23/11 39/24/11 11/25/11
f 60/26/12 61/22/12 11/25/12 30/27/12
f 30/27/13 11/25/14 24/28/14 29/29/15
f 11/25/16 39/24/17 40/30/18 24/28/16
f 24/28/19 40/30/19 41/31/19 15/32/19
f 29/29/20 24/28/20 15/32/20 28/33/20
f 2/34/21 13/35/21 64/36/21 65/37/21
f 13/35/22 8/38/22 63/39/22 64/36/22
f 46/40/23 47/41/23 6/42/23 19/43/23
f 45/44/24 46/40/24 19/43/24 4/45/24
f 7/46/25 14/47/25 58/48/25 59/49/25
f 14/47/26 1/50/26 57/51/26 58/48/26
f 52/52/27 53/53/27 3/54/27 9/55/27
f 51/56/28 52/52/28 9/55/28 5/57/28
f 1/50/29 28/1/29 56/4/29 57/51/29
f 14/58/20 29/29/20 28/33/20 1/59/20
f 7/60/30 30/27/13 29/29/15 14/58/30
f 59/61/31 60/26/31 30/27/31 7/60/31
f 5/62/32 32/18/32 50/20/32 51/63/32
f 9/64/33 33/14/33 32/18/33 5/62/33
f 3/54/34 34/11/34 33/14/34 9/64/34
f 53/53/35 54/12/35 34/11/35 3/54/35
f 35/9/36 4/45/36 19/65/36 36/15/36
f 37/16/37 36/15/37 19/65/37 6/66/37
f 48/21/38 37/16/38 6/66/38 47/67/38
f 39/24/39 62/23/39 63/68/39 8/69/39
f 40/30/18 39/24/17 8/69/40 13/70/40
f 41/31/41 40/30/41 13/70/41 2/71/41
f 66/6/42 41/5/42 2/34/42 65/37/42
f 35/9/43 44/8/43 45/44/43 4/45/43
f 21/72/44 42/73/44 44/8/44 43/7/44
f 45/44/45 44/8/45 42/73/45 16/74/45
f 16/74/46 25/75/46 46/40/46 45/44/46
f 25/75/47 10/76/47 47/41/47 46/40/47
f 38/77/48 48/21/48 47/67/48 10/78/48
f 49/19/49 48/21/49 38/77/49 23/79/49
f 50/20/50 49/19/50 23/79/50 31/80/50
f 51/63/51 50/20/51 31/80/51 12/81/51
f 12/82/52 26/83/52 52/52/52 51/56/52
f 26/83/53 18/84/53 53/53/53 52/52/53
f 18/84/54 27/85/54 54/12/54 53/53/54
f 43/7/55 54/12/55 27/85/55 21/72/55
f 56/4/56 55/3/56 21/72/56 27/85/56
f 57/51/57 56/4/57 27/85/57 18/84/57
f 58/48/58 57/51/58 18/84/58 26/83/58
f 59/49/59 58/48/59 26/83/59 12/82/59
f 12/81/60 31/80/60 60/26/60 59/61/60
f 31/80/61 23/79/61 61/22/61 60/26/61
f 23/79/62 38/77/62 62/23/62 61/22/62
f 63/68/63 62/23/63 38/77/63 10/78/63
f 64/36/64 63/39/64 10/76/64 25/75/64
f 65/37/65 64/36/65 25/75/65 16/74/65
f 42/73/66 66/6/66 65/37/66 16/74/66
f 55/3/67 66/6/67 42/73/67 21/72/67
