# Blender 4.5.4 LTS
# www.blender.org
mtllib fencePiece.mtl
o fence
v -1.548434 -0.000000 0.250000
v -1.549191 0.000000 -0.250000
v -1.549234 0.500000 -0.250000
v -1.550294 0.500000 0.250000
v -1.549446 0.300000 0.250000
v -1.548173 0.300000 -0.250000
v -1.548841 0.200000 -0.250000
v -1.548841 0.200000 0.250000
v -1.550000 0.550000 -0.200000
v -1.550000 0.550000 0.200000
v 2.000000 -0.000000 0.250000
v 2.000000 2.000000 0.250000
v 2.000000 0.000000 -0.250000
v 2.000000 2.000000 -0.250000
v 1.500000 2.000000 0.250000
v 1.500000 2.000000 -0.250000
v 1.500000 1.800000 -0.250000
v 2.000000 1.800000 -0.250000
v 1.500000 1.800000 0.250000
v 2.000000 1.800000 0.250000
v 2.000000 0.500000 -0.250000
v 2.000000 0.500000 0.250000
v 1.750000 2.200000 0.000001
v 1.850000 0.750000 0.200000
v 1.850000 1.550000 0.200000
v 1.850000 0.750000 -0.200000
v 1.650000 0.750000 -0.200000
v 1.650000 0.750000 0.200000
v 1.650000 1.550000 0.200000
v 1.850000 1.550000 -0.200000
v 1.650000 1.550000 -0.200000
v 1.998474 0.250000 -0.200000
v 1.999656 0.250000 0.200000
v 2.000000 0.300000 0.250000
v 2.000000 0.300000 -0.250000
v 2.000000 0.200000 -0.250000
v 2.000000 0.200000 0.250000
v 1.950000 0.550000 0.200000
v 1.950000 1.750000 0.200000
v 1.950000 0.550000 -0.200000
v 1.550000 0.550000 -0.200000
v 1.550000 0.550000 0.200000
v 1.550000 1.750000 0.200000
v 1.950000 1.750000 -0.200000
v 1.550000 1.750000 -0.200000
v 1.750000 0.850000 -0.150000
v 1.750000 1.450000 -0.150000
v 1.750000 0.850000 0.150000
v 1.750000 1.450000 0.150000
v -0.750000 0.500000 -0.052330
v -0.750000 1.744877 -0.052329
v -0.704681 0.500000 -0.026165
v -0.704681 1.744877 -0.026164
v -0.704681 0.500000 0.026165
v -0.704681 1.744877 0.026165
v -0.750000 0.500000 0.052330
v -0.750000 1.744877 0.052330
v -0.795319 0.500000 0.026165
v -0.795319 1.744877 0.026165
v -0.795319 0.500000 -0.026165
v -0.795319 1.744877 -0.026165
v -0.676579 1.800000 -0.042389
v -0.750000 1.800000 -0.084779
v -0.676579 1.800000 0.042390
v -0.750000 1.800000 0.084780
v -0.823421 1.800000 0.042390
v -0.823421 1.800000 -0.042389
v -0.750000 2.000000 0.000000
v -1.600000 0.900000 0.052329
v 1.600000 0.854681 0.026167
v -1.600000 0.854681 0.026164
v 1.600000 0.854681 -0.026163
v -1.600000 0.854681 -0.026166
v 1.600000 0.900000 -0.052328
v -1.600000 0.900000 -0.052331
v 1.600000 0.900000 0.052332
v -1.600000 0.945319 0.026164
v 1.600000 0.945319 0.026167
v -1.600000 0.945319 -0.026166
v 1.600000 0.945319 -0.026163
v -1.600000 1.400000 0.052329
v 1.600000 1.354681 0.026167
v -1.600000 1.354681 0.026164
v 1.600000 1.354681 -0.026163
v -1.600000 1.354681 -0.026166
v 1.600000 1.400000 -0.052328
v -1.600000 1.400000 -0.052331
v 1.600000 1.400000 0.052332
v -1.600000 1.445319 0.026164
v 1.600000 1.445319 0.026167
v -1.600000 1.445319 -0.026166
v 1.600000 1.445319 -0.026163
v 1.250000 0.500000 -0.052330
v 1.250000 1.744877 -0.052329
v 1.295319 0.500000 -0.026165
v 1.295319 1.744877 -0.026164
v 1.295319 0.500000 0.026165
v 1.295319 1.744877 0.026165
v 1.250000 0.500000 0.052330
v 1.250000 1.744877 0.052330
v 1.204681 0.500000 0.026165
v 1.204681 1.744877 0.026165
v 1.204681 0.500000 -0.026165
v 1.204681 1.744877 -0.026165
v 1.323421 1.800000 -0.042389
v 1.250000 1.800000 -0.084779
v 1.323421 1.800000 0.042390
v 1.250000 1.800000 0.084780
v 1.176579 1.800000 0.042390
v 1.176579 1.800000 -0.042389
v 1.250000 2.000000 0.000000
v -1.250000 2.000000 0.000000
v -1.323421 1.800000 -0.042389
v -1.323421 1.800000 0.042390
v -1.250000 1.800000 0.084780
v -1.176579 1.800000 0.042390
v -1.250000 1.800000 -0.084779
v -1.176579 1.800000 -0.042389
v -1.295319 1.744877 -0.026165
v -1.295319 0.500000 -0.026165
v -1.295319 1.744877 0.026165
v -1.295319 0.500000 0.026165
v -1.250000 1.744877 0.052330
v -1.250000 0.500000 0.052330
v -1.204681 1.744877 0.026165
v -1.204681 0.500000 0.026165
v -1.204681 1.744877 -0.026164
v -1.204681 0.500000 -0.026165
v -1.250000 1.744877 -0.052329
v -1.250000 0.500000 -0.052330
v -0.250000 2.000000 0.000000
v -0.323421 1.800000 -0.042389
v -0.323421 1.800000 0.042390
v -0.250000 1.800000 0.084780
v -0.176579 1.800000 0.042390
v -0.250000 1.800000 -0.084779
v -0.176579 1.800000 -0.042389
v -0.295319 1.744877 -0.026165
v -0.295319 0.500000 -0.026165
v -0.295319 1.744877 0.026165
v -0.295319 0.500000 0.026165
v -0.250000 1.744877 0.052330
v -0.250000 0.500000 0.052330
v -0.204681 1.744877 0.026165
v -0.204681 0.500000 0.026165
v -0.204681 1.744877 -0.026164
v -0.204681 0.500000 -0.026165
v -0.250000 1.744877 -0.052329
v -0.250000 0.500000 -0.052330
v 0.250000 0.500000 -0.052330
v 0.250000 1.744877 -0.052329
v 0.295319 0.500000 -0.026165
v 0.295319 1.744877 -0.026164
v 0.295319 0.500000 0.026165
v 0.295319 1.744877 0.026165
v 0.250000 0.500000 0.052330
v 0.250000 1.744877 0.052330
v 0.204681 0.500000 0.026165
v 0.204681 1.744877 0.026165
v 0.204681 0.500000 -0.026165
v 0.204681 1.744877 -0.026165
v 0.323421 1.800000 -0.042389
v 0.250000 1.800000 -0.084779
v 0.323421 1.800000 0.042390
v 0.250000 1.800000 0.084780
v 0.176579 1.800000 0.042390
v 0.176579 1.800000 -0.042389
v 0.250000 2.000000 0.000000
v 0.750000 2.000000 0.000000
v 0.676579 1.800000 -0.042389
v 0.676579 1.800000 0.042390
v 0.750000 1.800000 0.084780
v 0.823421 1.800000 0.042390
v 0.750000 1.800000 -0.084779
v 0.823421 1.800000 -0.042389
v 0.704681 1.744877 -0.026165
v 0.704681 0.500000 -0.026165
v 0.704681 1.744877 0.026165
v 0.704681 0.500000 0.026165
v 0.750000 1.744877 0.052330
v 0.750000 0.500000 0.052330
v 0.795319 1.744877 0.026165
v 0.795319 0.500000 0.026165
v 0.795319 1.744877 -0.026164
v 0.795319 0.500000 -0.026165
v 0.750000 1.744877 -0.052329
v 0.750000 0.500000 -0.052330
v -1.548173 0.250738 -0.200054
v -1.549446 0.250054 0.200054
vn -1.0000 -0.0000 0.0002
vn -1.0000 -0.0000 -0.0001
vn -1.0000 -0.0000 -0.0002
vn -1.0000 0.0001 -0.0000
vn -0.0000 -0.0000 -1.0000
vn -1.0000 -0.0001 0.0008
vn 0.9576 -0.2880 -0.0000
vn 1.0000 -0.0000 -0.0000
vn -0.0000 -0.2880 -0.9576
vn -1.0000 -0.0000 -0.0000
vn -0.0000 -0.2880 0.9576
vn -0.0000 -0.0000 1.0000
vn 0.6247 0.7809 -0.0000
vn -0.7071 -0.7071 -0.0000
vn 0.8959 -0.4444 -0.0000
vn -0.0000 -0.4444 0.8958
vn -0.0000 0.7809 0.6247
vn -0.0000 0.7809 -0.6247
vn -0.6247 0.7809 -0.0000
vn -0.0000 -0.4472 0.8944
vn -0.4472 -0.0000 -0.8944
vn 0.7071 0.7071 -0.0000
vn -0.0000 0.7071 0.7071
vn -0.0000 0.4444 0.8959
vn -0.0000 0.5055 0.8629
vn -0.0000 -0.4444 -0.8959
vn -0.0000 0.5055 -0.8629
vn -0.0000 0.4444 -0.8958
vn -0.0000 0.7071 -0.7071
vn 0.9998 0.0187 -0.0013
vn -0.4452 0.6318 -0.6345
vn -0.4489 0.6311 0.6326
vn -0.8801 0.4118 0.2362
vn -0.9042 0.4210 -0.0716
vn 0.9998 -0.0187 -0.0013
vn -0.0000 -1.0000 -0.0000
vn -0.0000 -0.4472 -0.8944
vn 0.4472 -0.0000 -0.8944
vn -0.0000 0.4472 -0.8944
vn -0.0000 0.4472 0.8944
vn -0.4472 -0.0000 0.8944
vn 0.4472 -0.0000 0.8944
vn -0.0000 1.0000 -0.0000
vn 0.5000 -0.0000 0.8660
vn 0.4840 -0.2511 0.8383
vn 0.4694 0.3446 -0.8130
vn 0.9387 0.3446 -0.0000
vn 0.5000 -0.0000 -0.8660
vn 0.4840 -0.2511 -0.8383
vn -0.5000 -0.0000 0.8660
vn -0.4840 -0.2511 0.8383
vn -0.9387 0.3446 -0.0000
vn 0.9680 -0.2511 -0.0000
vn 0.4694 0.3446 0.8130
vn -0.4694 0.3446 0.8130
vn 0.4455 -0.4542 0.7715
vn -0.4694 0.3446 -0.8130
vn -0.4455 -0.4542 0.7715
vn -0.9680 -0.2511 -0.0000
vn -0.8909 -0.4542 -0.0000
vn 0.4455 -0.4542 -0.7715
vn 0.8909 -0.4542 -0.0000
vn -0.4840 -0.2511 -0.8383
vn -0.4455 -0.4542 -0.7715
vn -0.5000 -0.0000 -0.8660
vn -0.6100 -0.6862 -0.3962
vn -0.6100 -0.6862 0.3962
vn -0.6100 -0.0000 -0.7924
vn -0.0000 -0.5000 -0.8660
vn -0.6100 -0.0000 0.7924
vn -0.0000 0.5000 0.8660
vn -0.6100 0.6862 0.3962
vn -0.6100 0.6862 -0.3962
vn -0.0000 0.5000 -0.8660
vn -0.0000 -0.5000 0.8660
vn -0.0026 -1.0000 -0.0048
vn -0.4527 0.6278 -0.6332
vn -0.4459 0.6330 0.6328
vn -0.7290 -0.0016 0.6845
vn -0.8289 0.3937 -0.3974
vn 1.0000 -0.0000 0.0028
vn 0.0001 0.7043 -0.7099
vn 0.0001 0.7095 0.7047
vn -0.0000 0.7067 0.7075
vn -0.0000 -0.0003 1.0000
vn -0.0000 -0.7071 0.7071
vt 0.409918 0.821112
vt 0.409918 0.830678
vt 0.409918 0.831954
vt 0.409918 0.822388
vt 0.409918 0.806763
vt 0.409918 0.816329
vt 0.409918 0.892855
vt 0.409918 0.902421
vt 0.409918 0.908480
vt 0.433832 0.908480
vt 0.433832 0.918046
vt 0.409918 0.918046
vt 0.433832 0.892855
vt 0.433832 0.902421
vt 0.409918 0.933671
vt 0.421875 0.943237
vt 0.433832 0.861605
vt 0.431441 0.859214
vt 0.409918 0.836737
vt 0.409918 0.846303
vt 0.409918 0.861605
vt 0.412309 0.859214
vt 0.433832 0.877230
vt 0.431441 0.874839
vt 0.412309 0.874839
vt 0.409918 0.877230
vt 0.409918 0.949296
vt 0.421875 0.958862
vt 0.433832 0.949296
vt 0.433832 0.933671
vt 0.426658 0.865273
vt 0.421875 0.860490
vt 0.417092 0.865273
vt 0.431441 0.833069
vt 0.431441 0.890464
vt 0.417092 0.842635
vt 0.421875 0.831793
vt 0.417092 0.880898
vt 0.412309 0.833069
vt 0.412309 0.890464
vt 0.409918 0.861928
vt 0.412309 0.864319
vt 0.409918 0.877553
vt 0.412309 0.879944
vt 0.431441 0.879944
vt 0.409918 0.847579
vt 0.412309 0.849970
vt 0.431441 0.864319
vt 0.412309 0.787470
vt 0.409918 0.789862
vt 0.409918 0.775513
vt 0.417092 0.858260
vt 0.412309 0.848694
vt 0.412309 0.906089
vt 0.417092 0.896523
vt 0.417092 0.858260
vt 0.431441 0.848694
vt 0.426658 0.858260
vt 0.426658 0.858260
vt 0.426658 0.896523
vt 0.431441 0.906089
vt 0.426658 0.880898
vt 0.421875 0.876115
vt 0.421875 0.847418
vt 0.426658 0.842635
vt 0.426658 0.889510
vt 0.421875 0.894293
vt 0.417092 0.889510
vt 0.417092 0.889510
vt 0.426658 0.889510
vt 0.417092 0.842635
vt 0.426658 0.842635
vt 0.189209 0.821904
vt 0.189209 0.910035
vt 0.188198 0.910035
vt 0.188198 0.821904
vt 0.189835 0.913937
vt 0.188198 0.913937
vt 0.188198 0.959346
vt 0.189835 0.898312
vt 0.188198 0.943721
vt 0.187188 0.910035
vt 0.187188 0.821904
vt 0.186562 0.898312
vt 0.189209 0.806279
vt 0.189209 0.894410
vt 0.188198 0.913937
vt 0.186562 0.913937
vt 0.188198 0.878785
vt 0.189209 0.878785
vt 0.189835 0.882687
vt 0.188198 0.882687
vt 0.187188 0.878785
vt 0.186562 0.882687
vt 0.187188 0.863160
vt 0.186562 0.867062
vt 0.187188 0.806279
vt 0.187188 0.894410
vt 0.188198 0.882687
vt 0.189209 0.863160
vt 0.189835 0.867062
vt 0.146963 0.815763
vt 0.218289 0.815763
vt 0.146963 0.834597
vt 0.218289 0.834597
vt 0.146963 0.850222
vt 0.218289 0.850222
vt 0.218289 0.869055
vt 0.146963 0.869055
vt 0.146963 0.850222
vt 0.146963 0.834597
vt 0.146963 0.851161
vt 0.218289 0.851161
vt 0.146963 0.869994
vt 0.218289 0.869994
vt 0.146963 0.885619
vt 0.218289 0.885619
vt 0.218289 0.904453
vt 0.146963 0.904453
vt 0.146963 0.885619
vt 0.146963 0.869994
vt 0.389099 0.815403
s 1
usemtl HalloweenBits
f 5/1/1 4/2/2 3/2/3 6/1/4
f 7/3/5 36/3/5 13/4/5 2/4/5
f 1/5/6 8/6/6 7/6/6 2/5/6
f 20/7/7 18/7/7 14/8/8 12/8/8
f 18/9/9 17/10/9 16/11/5 14/12/5
f 17/13/10 19/13/10 15/14/10 16/14/10
f 19/10/11 20/9/11 12/12/12 15/11/12
f 1/4/12 11/4/12 37/3/12 8/3/12
f 14/15/13 23/16/13 12/15/13
f 17/17/14 45/18/14 43/18/14 19/17/14
f 34/1/8 35/1/8 21/2/8 22/2/8
f 5/19/12 34/19/12 22/20/12 4/20/12
f 20/21/7 39/22/15 44/22/15 18/21/7
f 19/23/11 43/24/16 39/25/16 20/26/11
f 12/27/17 23/28/17 15/29/17
f 16/29/18 23/28/18 14/27/18
f 15/30/19 23/16/19 16/30/19
f 29/31/20 49/32/20 25/33/20
f 41/34/10 42/34/10 43/35/10 45/35/10
f 26/36/21 46/37/21 47/32/21 30/38/21
f 38/39/8 40/39/8 44/40/15 39/40/15
f 21/41/22 40/42/22 38/42/22 22/41/22
f 22/43/23 38/44/24 42/45/25
f 18/26/9 44/25/26 45/24/26 17/23/9
f 41/45/27 40/44/28 21/43/29
f 37/46/30 36/46/30 32/47/30 33/47/30
f 3/43/31 4/43/32 10/48/33 9/45/34
f 33/49/35 32/49/35 35/50/35 34/50/35
f 3/20/5 21/20/5 35/19/5 6/19/5
f 9/45/34 41/45/27 21/43/29 3/43/31
f 11/5/8 13/5/8 36/6/8 37/6/8
f 2/51/36 13/51/36 11/51/36 1/51/36
f 24/52/12 38/53/24 39/54/16 25/55/12
f 26/56/5 40/53/28 41/57/27 27/58/5
f 28/59/12 42/57/25 38/53/24 24/52/12
f 29/60/12 43/61/16 42/57/25 28/59/12
f 30/55/5 44/54/26 40/53/28 26/56/5
f 27/58/5 41/57/27 45/61/26 31/60/5
f 25/55/12 39/54/16 43/61/16 29/60/12
f 31/60/5 45/61/26 44/54/26 30/55/5
f 30/33/37 47/32/37 31/31/37
f 31/62/38 47/63/38 46/64/38 27/65/38
f 27/66/39 46/67/39 26/68/39
f 24/69/40 48/67/40 28/70/40
f 25/38/41 49/63/41 48/64/41 24/71/41
f 28/72/42 48/37/42 49/32/42 29/62/42
f 10/48/43 42/48/43 41/48/43 9/48/43
f 4/43/32 22/43/23 42/45/25 10/45/33
f 54/73/44 55/74/45 57/75/45 56/76/44
f 62/77/46 63/78/46 68/79/46
f 64/80/47 62/80/47 68/81/47
f 50/76/48 51/75/49 53/74/49 52/73/48
f 56/76/50 57/75/51 59/82/51 58/83/50
f 67/84/52 66/84/52 68/81/52
f 52/85/8 53/86/53 55/86/53 54/85/8
f 65/87/54 64/77/54 68/79/54
f 66/88/55 65/87/55 68/79/55
f 57/89/45 55/90/45 64/91/56 65/92/56
f 63/78/57 67/88/57 68/79/57
f 59/93/51 57/89/51 65/92/58 66/94/58
f 61/95/59 59/95/59 66/96/60 67/96/60
f 58/97/10 59/98/59 61/98/59 60/97/10
f 53/90/49 51/89/49 63/99/61 62/91/61
f 50/76/36 52/73/36 54/73/36 56/76/36 58/83/36 60/83/36
f 55/100/53 53/100/53 62/101/62 64/101/62
f 51/89/63 61/93/63 67/94/64 63/99/64
f 60/83/65 61/82/63 51/75/63 50/76/65
f 73/102/66 72/103/36 70/103/36 71/102/67
f 75/104/68 74/105/69 72/103/69 73/102/66
f 69/106/70 76/107/71 78/108/71 77/109/72
f 79/109/73 80/108/74 74/107/74 75/110/68
f 77/109/72 78/108/43 80/108/43 79/109/73
f 71/102/67 70/103/75 76/105/75 69/111/70
f 85/112/66 84/113/36 82/113/36 83/112/67
f 87/114/68 86/115/69 84/113/69 85/112/66
f 81/116/70 88/117/71 90/118/71 89/119/72
f 91/119/73 92/118/74 86/117/74 87/120/68
f 89/119/72 90/118/43 92/118/43 91/119/73
f 83/112/67 82/113/75 88/115/75 81/121/70
f 95/85/8 96/86/53 98/86/53 97/85/8
f 108/87/54 107/77/54 111/79/54
f 105/77/46 106/78/46 111/79/46
f 100/89/45 98/90/45 107/91/56 108/92/56
f 93/76/48 94/75/49 96/74/49 95/73/48
f 107/80/47 105/80/47 111/81/47
f 99/76/50 100/75/51 102/82/51 101/83/50
f 102/93/51 100/89/51 108/92/58 109/94/58
f 109/88/55 108/87/55 111/79/55
f 104/95/59 102/95/59 109/96/60 110/96/60
f 106/78/57 110/88/57 111/79/57
f 101/97/10 102/98/59 104/98/59 103/97/10
f 103/83/65 104/82/63 94/75/63 93/76/65
f 97/73/44 98/74/45 100/75/45 99/76/44
f 96/90/49 94/89/49 106/99/61 105/91/61
f 93/76/36 95/73/36 97/73/36 99/76/36 101/83/36 103/83/36
f 98/100/53 96/100/53 105/101/62 107/101/62
f 94/89/63 104/93/63 110/94/64 106/99/64
f 110/84/52 109/84/52 111/81/52
f 114/88/55 115/87/55 112/79/55
f 129/89/63 119/93/63 113/94/64 117/99/64
f 127/90/49 129/89/49 117/99/61 118/91/61
f 125/100/53 127/100/53 118/101/62 116/101/62
f 113/84/52 114/84/52 112/81/52
f 130/76/36 128/73/36 126/73/36 124/76/36 122/83/36 120/83/36
f 117/78/57 113/88/57 112/79/57
f 116/80/47 118/80/47 112/81/47
f 130/76/48 129/75/49 127/74/49 128/73/48
f 123/89/45 125/90/45 116/91/56 115/92/56
f 120/83/65 119/82/63 129/75/63 130/76/65
f 118/77/46 117/78/46 112/79/46
f 119/95/59 121/95/59 114/96/60 113/96/60
f 115/87/54 116/77/54 112/79/54
f 126/73/44 125/74/45 123/75/45 124/76/44
f 122/97/10 121/98/59 119/98/59 120/97/10
f 124/76/50 123/75/51 121/82/51 122/83/50
f 128/85/8 127/86/53 125/86/53 126/85/8
f 121/93/51 123/89/51 115/92/58 114/94/58
f 148/89/63 138/93/63 132/94/64 136/99/64
f 145/73/44 144/74/45 142/75/45 143/76/44
f 141/97/10 140/98/59 138/98/59 139/97/10
f 138/95/59 140/95/59 133/96/60 132/96/60
f 133/88/55 134/87/55 131/79/55
f 140/93/51 142/89/51 134/92/58 133/94/58
f 144/100/53 146/100/53 137/101/62 135/101/62
f 132/84/52 133/84/52 131/81/52
f 147/85/8 146/86/53 144/86/53 145/85/8
f 139/83/65 138/82/63 148/75/63 149/76/65
f 143/76/50 142/75/51 140/82/51 141/83/50
f 149/76/36 147/73/36 145/73/36 143/76/36 141/83/36 139/83/36
f 136/78/57 132/88/57 131/79/57
f 146/90/49 148/89/49 136/99/61 137/91/61
f 137/77/46 136/78/46 131/79/46
f 135/80/47 137/80/47 131/81/47
f 142/89/45 144/90/45 135/91/56 134/92/56
f 134/87/54 135/77/54 131/79/54
f 149/76/48 148/75/49 146/74/49 147/73/48
f 150/76/48 151/75/49 153/74/49 152/73/48
f 152/85/8 153/86/53 155/86/53 154/85/8
f 154/73/44 155/74/45 157/75/45 156/76/44
f 156/76/50 157/75/51 159/82/51 158/83/50
f 159/93/51 157/89/51 165/92/58 166/94/58
f 158/97/10 159/98/59 161/98/59 160/97/10
f 160/83/65 161/82/63 151/75/63 150/76/65
f 150/76/36 152/73/36 154/73/36 156/76/36 158/83/36 160/83/36
f 167/84/52 166/84/52 168/81/52
f 155/100/53 153/100/53 162/101/62 164/101/62
f 161/95/59 159/95/59 166/96/60 167/96/60
f 153/90/49 151/89/49 163/99/61 162/91/61
f 157/89/45 155/90/45 164/91/56 165/92/56
f 151/89/63 161/93/63 167/94/64 163/99/64
f 165/87/54 164/77/54 168/79/54
f 162/77/46 163/78/46 168/79/46
f 163/78/57 167/88/57 168/79/57
f 166/88/55 165/87/55 168/79/55
f 164/80/47 162/80/47 168/81/47
f 171/88/55 172/87/55 169/79/55
f 186/89/63 176/93/63 170/94/64 174/99/64
f 184/90/49 186/89/49 174/99/61 175/91/61
f 182/100/53 184/100/53 175/101/62 173/101/62
f 170/84/52 171/84/52 169/81/52
f 187/76/36 185/73/36 183/73/36 181/76/36 179/83/36 177/83/36
f 174/78/57 170/88/57 169/79/57
f 173/80/47 175/80/47 169/81/47
f 187/76/48 186/75/49 184/74/49 185/73/48
f 180/89/45 182/90/45 173/91/56 172/92/56
f 177/83/65 176/82/63 186/75/63 187/76/65
f 175/77/46 174/78/46 169/79/46
f 176/95/59 178/95/59 171/96/60 170/96/60
f 172/87/54 173/77/54 169/79/54
f 183/73/44 182/74/45 180/75/45 181/76/44
f 179/97/10 178/98/59 176/98/59 177/97/10
f 181/76/50 180/75/51 178/82/51 179/83/50
f 185/85/8 184/86/53 182/86/53 183/85/8
f 178/93/51 180/89/51 172/92/58 171/94/58
f 6/19/36 35/19/36 5/1/76
f 7/6/77 8/6/78 189/122/79 188/122/80
s 0
f 188/122/81 6/122/81 5/122/81 189/122/81
s 1
f 7/6/77 188/122/80 32/47/82 36/46/82
s 0
f 188/122/83 32/122/83 35/122/83 6/122/83
s 1
f 8/6/78 37/46/84 33/47/85 189/122/79
f 5/122/86 189/122/79 33/47/85 34/50/86
f 83/112/67 81/121/70 89/119/72 91/119/73 87/120/68 85/112/66
f 71/102/67 69/111/70 77/109/72 79/109/73 75/110/68 73/102/66
