# Blender 4.5.4 LTS
# www.blender.org
mtllib rocks.mtl
o Rock_3
v -0.159406 0.045219 -0.058084
v -0.159300 0.045219 0.010884
v -0.009637 0.068423 -0.059329
v -0.001371 0.045130 0.006137
v -0.073364 0.068423 0.029322
v -0.066392 0.080106 -0.096666
v -0.115267 0.068423 -0.079374
v -0.130721 0.068423 0.049528
v -0.171717 0.000000 -0.063837
v -0.171592 0.000000 0.017159
v 0.013716 0.000000 -0.069425
v 0.013842 0.000000 0.011571
v -0.068807 0.000000 0.045373
v -0.059779 0.000000 -0.117776
v -0.123071 0.000000 -0.095383
v -0.143082 0.000000 0.071539
v -0.062985 0.027710 0.108377
v -0.052976 0.027710 0.117490
v -0.011508 0.042842 0.025376
v 0.027461 0.027652 0.043620
v 0.015170 0.042842 0.091384
v -0.051860 0.050460 0.043661
v -0.059349 0.042842 0.076629
v -0.025364 0.042842 0.102661
v -0.070444 0.000000 0.113161
v -0.050076 0.000000 0.126011
v -0.008941 0.000000 0.008985
v 0.035755 0.000000 0.037126
v 0.025606 0.000000 0.094463
v -0.061194 0.000000 0.032663
v -0.070892 0.000000 0.075355
v -0.012315 0.000000 0.112698
v 0.062818 0.027710 -0.011915
v 0.074713 0.027710 -0.018375
v 0.001329 0.042842 -0.087797
v 0.031360 0.027652 -0.118613
v 0.072438 0.042842 -0.091315
v 0.005346 0.050460 -0.043679
v 0.034025 0.042842 -0.025776
v 0.087722 0.038965 -0.064444
v 0.064887 0.000000 -0.003298
v 0.083713 0.000000 -0.018315
v -0.013310 0.000000 -0.095605
v 0.027951 0.000000 -0.128579
v 0.078773 0.000000 -0.100160
v -0.008107 0.000000 -0.038474
v 0.029031 0.000000 -0.015292
v 0.101488 0.000000 -0.073472
vn 0.2405 0.9551 0.1729
vn -0.0963 0.9947 0.0371
vn -0.5305 0.8467 -0.0411
vn -0.0000 -1.0000 -0.0000
vn -0.3458 0.2301 -0.9097
vn 0.5454 0.2763 -0.7913
vn -0.5255 0.2488 -0.8136
vn 0.9468 0.3217 -0.0031
vn -0.8455 0.2943 0.4455
vn 0.3228 0.2365 0.9164
vn 0.3670 0.2342 0.9002
vn -0.9649 0.2625 0.0015
vn 0.2746 0.9551 -0.1110
vn -0.0278 0.9897 0.1403
vn -0.2972 0.8794 0.3720
vn -0.9520 0.2383 -0.1923
vn -0.3759 0.2860 -0.8814
vn -0.9654 0.2606 0.0125
vn 0.5026 0.3360 -0.7965
vn 0.3153 0.3074 0.8978
vn 0.3424 0.2332 0.9102
vn 0.9547 0.2455 0.1684
vn -0.5694 0.2359 0.7875
vn -0.0146 0.9551 -0.2958
vn 0.1609 0.9825 0.0943
vn 0.2771 0.9042 0.3251
vn -0.4943 0.2383 0.8360
vn -0.9560 0.2860 0.0655
vn -0.3053 0.2606 0.9159
vn -0.5873 0.3360 -0.7363
vn 0.9124 0.2702 0.3075
vn 0.7858 0.3100 -0.5351
vn 0.4726 0.2455 -0.8464
vn 0.5568 0.2359 0.7964
s 1
usemtl Stone_Dark
f 5//1 4//1 3//1 6//1
f 8//2 5//2 6//2 7//2
f 2//3 8//3 7//3 1//3
f 13//4 14//4 11//4 12//4
f 16//4 15//4 14//4 13//4
f 10//4 9//4 15//4 16//4
f 6//5 14//5 15//5 7//5
f 3//6 11//6 14//6 6//6
f 7//7 15//7 9//7 1//7
f 4//8 12//8 11//8 3//8
f 2//9 10//9 16//9 8//9
f 8//10 16//10 13//10 5//10
f 5//11 13//11 12//11 4//11
f 1//12 9//12 10//12 2//12
f 21//13 20//13 19//13 22//13
f 24//14 21//14 22//14 23//14
f 18//15 24//15 23//15 17//15
f 29//4 30//4 27//4 28//4
f 32//4 31//4 30//4 29//4
f 26//4 25//4 31//4 32//4
f 22//16 30//16 31//16 23//16
f 19//17 27//17 30//17 22//17
f 23//18 31//18 25//18 17//18
f 20//19 28//19 27//19 19//19
f 18//20 26//20 32//20 24//20
f 24//21 32//21 29//21 21//21
f 21//22 29//22 28//22 20//22
f 17//23 25//23 26//23 18//23
f 37//24 36//24 35//24 38//24
f 40//25 37//25 38//25 39//25
f 34//26 40//26 39//26 33//26
f 45//4 46//4 43//4 44//4
f 48//4 47//4 46//4 45//4
f 42//4 41//4 47//4 48//4
f 38//27 46//27 47//27 39//27
f 35//28 43//28 46//28 38//28
f 39//29 47//29 41//29 33//29
f 36//30 44//30 43//30 35//30
f 34//31 42//31 48//31 40//31
f 40//32 48//32 45//32 37//32
f 37//33 45//33 44//33 36//33
f 33//34 41//34 42//34 34//34
